<svg id="visual" viewBox="0 0 900 600" width="900" height="600" xmlns="http://www.w3.org/2000/svg" xmlns:xlink="http://www.w3.org/1999/xlink" version="1.1"><rect x="0" y="0" width="900" height="600" fill="#001220"></rect><path d="M0 195L21.5 192.5C43 190 86 185 128.8 181.7C171.7 178.3 214.3 176.7 257.2 170.5C300 164.3 343 153.7 385.8 152.7C428.7 151.7 471.3 160.3 514.2 170.5C557 180.7 600 192.3 642.8 192.5C685.7 192.7 728.3 181.3 771.2 179.5C814 177.7 857 185.3 878.5 189.2L900 193L900 0L878.5 0C857 0 814 0 771.2 0C728.3 0 685.7 0 642.8 0C600 0 557 0 514.2 0C471.3 0 428.7 0 385.8 0C343 0 300 0 257.2 0C214.3 0 171.7 0 128.8 0C86 0 43 0 21.5 0L0 0Z" fill="#fa7268"></path><path d="M0 170L21.5 165.8C43 161.7 86 153.3 128.8 146.3C171.7 139.3 214.3 133.7 257.2 130C300 126.3 343 124.7 385.8 130.8C428.7 137 471.3 151 514.2 155.3C557 159.7 600 154.3 642.8 148.8C685.7 143.3 728.3 137.7 771.2 140.7C814 143.7 857 155.3 878.5 161.2L900 167L900 0L878.5 0C857 0 814 0 771.2 0C728.3 0 685.7 0 642.8 0C600 0 557 0 514.2 0C471.3 0 428.7 0 385.8 0C343 0 300 0 257.2 0C214.3 0 171.7 0 128.8 0C86 0 43 0 21.5 0L0 0Z" fill="#ef5f67"></path><path d="M0 130L21.5 123C43 116 86 102 128.8 96.2C171.7 90.3 214.3 92.7 257.2 96.7C300 100.7 343 106.3 385.8 108.2C428.7 110 471.3 108 514.2 108.2C557 108.3 600 110.7 642.8 111.5C685.7 112.3 728.3 111.7 771.2 110C814 108.3 857 105.7 878.5 104.3L900 103L900 0L878.5 0C857 0 814 0 771.2 0C728.3 0 685.7 0 642.8 0C600 0 557 0 514.2 0C471.3 0 428.7 0 385.8 0C343 0 300 0 257.2 0C214.3 0 171.7 0 128.8 0C86 0 43 0 21.5 0L0 0Z" fill="#e34c67"></path><path d="M0 75L21.5 76.7C43 78.3 86 81.7 128.8 82.5C171.7 83.3 214.3 81.7 257.2 80.5C300 79.3 343 78.7 385.8 80.8C428.7 83 471.3 88 514.2 89.7C557 91.3 600 89.7 642.8 88.7C685.7 87.7 728.3 87.3 771.2 85.8C814 84.3 857 81.7 878.5 80.3L900 79L900 0L878.5 0C857 0 814 0 771.2 0C728.3 0 685.7 0 642.8 0C600 0 557 0 514.2 0C471.3 0 428.7 0 385.8 0C343 0 300 0 257.2 0C214.3 0 171.7 0 128.8 0C86 0 43 0 21.5 0L0 0Z" fill="#d53867"></path><path d="M0 42L21.5 43C43 44 86 46 128.8 46.3C171.7 46.7 214.3 45.3 257.2 41.2C300 37 343 30 385.8 27.8C428.7 25.7 471.3 28.3 514.2 29.5C557 30.7 600 30.3 642.8 29C685.7 27.7 728.3 25.3 771.2 28C814 30.7 857 38.3 878.5 42.2L900 46L900 0L878.5 0C857 0 814 0 771.2 0C728.3 0 685.7 0 642.8 0C600 0 557 0 514.2 0C471.3 0 428.7 0 385.8 0C343 0 300 0 257.2 0C214.3 0 171.7 0 128.8 0C86 0 43 0 21.5 0L0 0Z" fill="#c62368"></path></svg>