<svg id="visual" viewBox="0 0 900 600" width="900" height="600" xmlns="http://www.w3.org/2000/svg" xmlns:xlink="http://www.w3.org/1999/xlink" version="1.1"><rect x="0" y="0" width="900" height="600" fill="#001220"></rect><path d="M0 403L21.5 405.5C43 408 86 413 128.8 416.3C171.7 419.7 214.3 421.3 257.2 427.5C300 433.7 343 444.3 385.8 445.3C428.7 446.3 471.3 437.7 514.2 427.5C557 417.3 600 405.7 642.8 405.5C685.7 405.3 728.3 416.7 771.2 418.5C814 420.3 857 412.7 878.5 408.8L900 405L900 601L878.5 601C857 601 814 601 771.2 601C728.3 601 685.7 601 642.8 601C600 601 557 601 514.2 601C471.3 601 428.7 601 385.8 601C343 601 300 601 257.2 601C214.3 601 171.7 601 128.8 601C86 601 43 601 21.5 601L0 601Z" fill="#fa7268"></path><path d="M0 428L21.5 432.2C43 436.3 86 444.7 128.8 451.7C171.7 458.7 214.3 464.3 257.2 468C300 471.7 343 473.3 385.8 467.2C428.7 461 471.3 447 514.2 442.7C557 438.3 600 443.7 642.8 449.2C685.7 454.7 728.3 460.3 771.2 457.3C814 454.3 857 442.7 878.5 436.8L900 431L900 601L878.5 601C857 601 814 601 771.2 601C728.3 601 685.7 601 642.8 601C600 601 557 601 514.2 601C471.3 601 428.7 601 385.8 601C343 601 300 601 257.2 601C214.3 601 171.7 601 128.8 601C86 601 43 601 21.5 601L0 601Z" fill="#ef5f67"></path><path d="M0 468L21.5 475C43 482 86 496 128.8 501.8C171.7 507.7 214.3 505.3 257.2 501.3C300 497.3 343 491.7 385.8 489.8C428.7 488 471.3 490 514.2 489.8C557 489.7 600 487.3 642.8 486.5C685.7 485.7 728.3 486.3 771.2 488C814 489.7 857 492.3 878.5 493.7L900 495L900 601L878.5 601C857 601 814 601 771.2 601C728.3 601 685.7 601 642.8 601C600 601 557 601 514.2 601C471.3 601 428.7 601 385.8 601C343 601 300 601 257.2 601C214.3 601 171.7 601 128.8 601C86 601 43 601 21.5 601L0 601Z" fill="#e34c67"></path><path d="M0 523L21.5 521.3C43 519.7 86 516.3 128.8 515.5C171.7 514.7 214.3 516.3 257.2 517.5C300 518.7 343 519.3 385.8 517.2C428.7 515 471.3 510 514.2 508.3C557 506.7 600 508.3 642.8 509.3C685.7 510.3 728.3 510.7 771.2 512.2C814 513.7 857 516.3 878.5 517.7L900 519L900 601L878.5 601C857 601 814 601 771.2 601C728.3 601 685.7 601 642.8 601C600 601 557 601 514.2 601C471.3 601 428.7 601 385.8 601C343 601 300 601 257.2 601C214.3 601 171.7 601 128.8 601C86 601 43 601 21.5 601L0 601Z" fill="#d53867"></path><path d="M0 556L21.5 555C43 554 86 552 128.8 551.7C171.7 551.3 214.3 552.7 257.2 556.8C300 561 343 568 385.8 570.2C428.7 572.3 471.3 569.7 514.2 568.5C557 567.3 600 567.7 642.8 569C685.7 570.3 728.3 572.7 771.2 570C814 567.3 857 559.7 878.5 555.8L900 552L900 601L878.5 601C857 601 814 601 771.2 601C728.3 601 685.7 601 642.8 601C600 601 557 601 514.2 601C471.3 601 428.7 601 385.8 601C343 601 300 601 257.2 601C214.3 601 171.7 601 128.8 601C86 601 43 601 21.5 601L0 601Z" fill="#c62368"></path></svg>