<svg id="visual" viewBox="0 0 900 200" width="900" height="200" xmlns="http://www.w3.org/2000/svg" xmlns:xlink="http://www.w3.org/1999/xlink" version="1.1"><rect x="0" y="0" width="900" height="200" fill="#001220"></rect><path d="M0 91L15 94.3C30 97.7 60 104.3 90 110.5C120 116.7 150 122.3 180 118.8C210 115.3 240 102.7 270 102.3C300 102 330 114 360 113.8C390 113.7 420 101.3 450 94.7C480 88 510 87 540 91.7C570 96.3 600 106.7 630 112.5C660 118.3 690 119.7 720 121C750 122.3 780 123.7 810 123.7C840 123.7 870 122.3 885 121.7L900 121L900 0L885 0C870 0 840 0 810 0C780 0 750 0 720 0C690 0 660 0 630 0C600 0 570 0 540 0C510 0 480 0 450 0C420 0 390 0 360 0C330 0 300 0 270 0C240 0 210 0 180 0C150 0 120 0 90 0C60 0 30 0 15 0L0 0Z" fill="#fa7268"></path><path d="M0 97L15 94.7C30 92.3 60 87.7 90 87.8C120 88 150 93 180 92.7C210 92.3 240 86.7 270 84.5C300 82.3 330 83.7 360 87.5C390 91.3 420 97.7 450 95C480 92.3 510 80.7 540 77C570 73.3 600 77.7 630 84.2C660 90.7 690 99.3 720 102.3C750 105.3 780 102.7 810 95.8C840 89 870 78 885 72.5L900 67L900 0L885 0C870 0 840 0 810 0C780 0 750 0 720 0C690 0 660 0 630 0C600 0 570 0 540 0C510 0 480 0 450 0C420 0 390 0 360 0C330 0 300 0 270 0C240 0 210 0 180 0C150 0 120 0 90 0C60 0 30 0 15 0L0 0Z" fill="#f16367"></path><path d="M0 56L15 61C30 66 60 76 90 79C120 82 150 78 180 79C210 80 240 86 270 88.8C300 91.7 330 91.3 360 90.3C390 89.3 420 87.7 450 85.2C480 82.7 510 79.3 540 74C570 68.7 600 61.3 630 63.7C660 66 690 78 720 80.5C750 83 780 76 810 72.2C840 68.3 870 67.7 885 67.3L900 67L900 0L885 0C870 0 840 0 810 0C780 0 750 0 720 0C690 0 660 0 630 0C600 0 570 0 540 0C510 0 480 0 450 0C420 0 390 0 360 0C330 0 300 0 270 0C240 0 210 0 180 0C150 0 120 0 90 0C60 0 30 0 15 0L0 0Z" fill="#e85467"></path><path d="M0 42L15 44.2C30 46.3 60 50.7 90 55.8C120 61 150 67 180 69C210 71 240 69 270 67C300 65 330 63 360 60C390 57 420 53 450 48.3C480 43.7 510 38.3 540 39.8C570 41.3 600 49.7 630 54.8C660 60 690 62 720 63.8C750 65.7 780 67.3 810 62.5C840 57.7 870 46.3 885 40.7L900 35L900 0L885 0C870 0 840 0 810 0C780 0 750 0 720 0C690 0 660 0 630 0C600 0 570 0 540 0C510 0 480 0 450 0C420 0 390 0 360 0C330 0 300 0 270 0C240 0 210 0 180 0C150 0 120 0 90 0C60 0 30 0 15 0L0 0Z" fill="#de4467"></path><path d="M0 38L15 36C30 34 60 30 90 32.3C120 34.7 150 43.3 180 44.5C210 45.7 240 39.3 270 34C300 28.7 330 24.3 360 22C390 19.7 420 19.3 450 23.8C480 28.3 510 37.7 540 40.8C570 44 600 41 630 39.5C660 38 690 38 720 37.7C750 37.3 780 36.7 810 37.5C840 38.3 870 40.7 885 41.8L900 43L900 0L885 0C870 0 840 0 810 0C780 0 750 0 720 0C690 0 660 0 630 0C600 0 570 0 540 0C510 0 480 0 450 0C420 0 390 0 360 0C330 0 300 0 270 0C240 0 210 0 180 0C150 0 120 0 90 0C60 0 30 0 15 0L0 0Z" fill="#d23467"></path><path d="M0 15L15 17.3C30 19.7 60 24.3 90 22.3C120 20.3 150 11.7 180 10.7C210 9.7 240 16.3 270 19.8C300 23.3 330 23.7 360 20.5C390 17.3 420 10.7 450 9.8C480 9 510 14 540 19C570 24 600 29 630 28.5C660 28 690 22 720 19C750 16 780 16 810 14.2C840 12.3 870 8.7 885 6.8L900 5L900 0L885 0C870 0 840 0 810 0C780 0 750 0 720 0C690 0 660 0 630 0C600 0 570 0 540 0C510 0 480 0 450 0C420 0 390 0 360 0C330 0 300 0 270 0C240 0 210 0 180 0C150 0 120 0 90 0C60 0 30 0 15 0L0 0Z" fill="#c62368"></path></svg>